<?xml version="1.0" standalone="no"?>
<!DOCTYPE svg PUBLIC "-//W3C//DTD SVG 20010904//EN"
 "http://www.w3.org/TR/2001/REC-SVG-20010904/DTD/svg10.dtd">
<svg version="1.0" xmlns="http://www.w3.org/2000/svg"
 width="640.000000pt" height="640.000000pt" viewBox="0 0 640.000000 640.000000"
 preserveAspectRatio="xMidYMid meet">
<metadata>
Created by potrace 1.14, written by Peter Selinger 2001-2017
</metadata>
<g transform="translate(0.000000,640.000000) scale(0.100000,-0.100000)"
fill="#000000" stroke="none">
<path d="M0 3195 l0 -3195 3200 0 3200 0 0 3195 0 3195 -3200 0 -3200 0 0
-3195z m2310 1955 l0 -890 890 0 890 0 0 890 0 890 85 0 85 0 0 -890 0 -890
895 0 895 0 0 -85 0 -85 -895 0 -895 0 0 -895 0 -895 895 0 895 0 0 -85 0 -85
-895 0 -895 0 0 -890 0 -890 -85 0 -85 0 0 890 0 890 -890 0 -890 0 0 -890 0
-890 -85 0 -85 0 0 890 0 890 -895 0 -895 0 0 85 0 85 895 0 895 0 0 895 0
895 -895 0 -895 0 0 85 0 85 895 0 895 0 0 890 0 890 85 0 85 0 0 -890z"/>
<path d="M2310 3195 l0 -895 890 0 890 0 0 895 0 895 -890 0 -890 0 0 -895z"/>
</g>
</svg>
